General
Complete name                    : Public Enemies.mkv
Format                           : Matroska
File size                        : 1.30 GiB
Duration                         : 2h 20mn
Overall bit rate                 : 1 324 Kbps
Writing application              : HandBrake 0.9.4

Video
ID                               : 1
Format                           : AVC
Duration                         : 2h 20mn
Bit rate                         : 849 Kbps
Width                            : 720 pixels
Height                           : 356 pixels
Display aspect ratio             : 2.35:1
Resolution                       : 8 bits
Colorimetry                      : 4:2:0
Scan type                        : Progressive
Bits/(Pixel*Frame)               : 0.133
Stream size                      : 851 MiB (64%)
Writing library                  : x264 core 79

Audio
ID                               : 2
Format                           : AC-3
Format/Info                      : Audio Coding 3
Codec ID                         : A_AC3
Duration                         : 2h 20mn
Bit rate mode                    : Constant
Bit rate                         : 448 Kbps
Channel(s)                       : 6 channels
Channel positions                : Front: L C R, Side: L R, LFE
Sampling rate                    : 48.0 KHz
Stream size                      : 449 MiB (34%)
Language                         : English

Text #1
Language                         : English

Text #2
Language                         : French

Text #3
Language                         : Spanish

Text #4
Language                         : Chinese

Text #5
Language                         : Dutch

Text #6
Language                         : Portuguese

Text #7
Language                         : Arabic

Text #8
Language                         : Croatian

Text #9
Language                         : Czech

Text #10
Language                         : Finnish

Text #11
Language                         : Hungarian

Text #12
Language                         : Polish

Text #13
Language                         : Romanian

Text #14
Language                         : Turkish

Text #15
Language                         : Vietnamese

Text #16
Language                         : Danish

Text #17
Language                         : Swedish

Text #18
Language                         : Norwegian

Menu
00:00:00.000                     : Chapter 1


